# xmcd CD database file
#
# Track frame offsets:
#	150
#	33892
#	59312
#	83395
#	107465
#	139512
#	174150
#	209200
#	242245
#
# Disc length: 3649 seconds
#
# Revision: 2
# Processed by: cddbd v1.5.1PL0 Copyright (c) Steve Scherf et al.
# Submitted via: CDex 1.51
#
DISCID=6c0e3f09
DTITLE=ヤナーチェク/バルトーク - バルトーク/ヤナーチェク_弦楽四重奏曲全集_東京クヮルテット_Disc3
DYEAR=1994
DGENRE=Classical
TTITLE0=バルトーク/弦楽四重奏曲第5番Sz102_第1楽章_Allegro
TTITLE1=バルトーク/弦楽四重奏曲第5番Sz102_第2楽章_Adagio molto
TTITLE2=バルトーク/弦楽四重奏曲第5番Sz102_第3楽章_Scherzo: Alla bulgarese (vivace)
TTITLE3=バルトーク/弦楽四重奏曲第5番Sz102_第4楽章_Andante
TTITLE4=バルトーク/弦楽四重奏曲第5番Sz102_第5楽章_Finale: Allegro vivace
TTITLE5=バルトーク/弦楽四重奏曲第6番Sz114_第1楽章_Mesto - Piu mosso, pesante - Vivace
TTITLE6=バルトーク/弦楽四重奏曲第6番Sz114_第2楽章_Mesto - Marcia
TTITLE7=バルトーク/弦楽四重奏曲第6番Sz114_第3楽章_Mesto, Burletta
TTITLE8=バルトーク/弦楽四重奏曲第6番Sz114_第4楽章_Mesto
EXTD=YEAR: 19941995
EXTT0=
EXTT1=
EXTT2=
EXTT3=
EXTT4=
EXTT5=
EXTT6=
EXTT7=
EXTT8=
PLAYORDER=
